<svg width="512" height="512" viewBox="0 0 512 512" fill="none" xmlns="http://www.w3.org/2000/svg">
  <rect width="512" height="512" rx="64" fill="#0f172a"/>
  <g transform="translate(146, 180) scale(3)">
    <path d="M59.7529 9.73334C64.8444 9.73334 68.4562 14.6987 66.8886 19.5429L60.4267 39.5126C59.4253 42.607 56.5433 44.7039 53.291 44.704H26.4785C23.152 44.704 20.2234 42.5124 19.2841 39.3212L10.5751 9.73334H59.7529Z" stroke="#5FD3CA" stroke-width="5"/>
    <path d="M2.5 2.5H29.3222" stroke="#A39E9E" stroke-width="5" stroke-linecap="round"/>
    <path d="M57.6695 48.2556C57.4056 50.9131 55.164 52.9888 52.4371 52.989C49.71 52.989 47.4676 50.9132 47.2037 48.2556H57.6695Z" fill="#5FD3CA"/>
    <path d="M32.951 48.2556C32.6871 50.9131 30.4455 52.9888 27.7186 52.989C24.9915 52.989 22.7491 50.9132 22.4852 48.2556H32.951Z" fill="#5FD3CA"/>
  </g>
</svg>
