<svg width="112" height="59" viewBox="0 0 112 59" fill="none" xmlns="http://www.w3.org/2000/svg">
<path d="M59.7529 15.2333C64.8444 15.2333 68.4562 20.1987 66.8886 25.0429L60.4267 45.0126C59.4253 48.107 56.5433 50.2039 53.291 50.204H26.4785C23.152 50.204 20.2234 48.0124 19.2841 44.8212L10.5751 15.2333H59.7529Z" stroke="#5FD3CA" stroke-width="5"/>
<path d="M2.5 8H29.3222" stroke="#A39E9E" stroke-width="5" stroke-linecap="round"/>
<path d="M57.6695 53.7556C57.4056 56.4131 55.164 58.4888 52.4371 58.489C49.71 58.489 47.4676 56.4132 47.2037 53.7556H57.6695Z" fill="#5FD3CA"/>
<path d="M32.951 53.7556C32.6871 56.4131 30.4455 58.4888 27.7186 58.489C24.9915 58.489 22.7491 56.4132 22.4852 53.7556H32.951Z" fill="#5FD3CA"/>
<circle cx="31.5" cy="38" r="3" fill="#5FD3CA"/>
<circle cx="40.5" cy="38" r="3" fill="#5FD3CA"/>
<circle cx="49.5" cy="38" r="3" fill="#5FD3CA"/>
<rect x="67.5" width="44" height="16" rx="8" fill="#5FD3CA"/>
<path d="M81.584 8.95898H79.4102V7.58789H81.584C81.9199 7.58789 82.1934 7.5332 82.4043 7.42383C82.6152 7.31055 82.7695 7.1543 82.8672 6.95508C82.9648 6.75586 83.0137 6.53125 83.0137 6.28125C83.0137 6.02734 82.9648 5.79102 82.8672 5.57227C82.7695 5.35352 82.6152 5.17773 82.4043 5.04492C82.1934 4.91211 81.9199 4.8457 81.584 4.8457H80.0195V12H78.2617V3.46875H81.584C82.252 3.46875 82.8242 3.58984 83.3008 3.83203C83.7812 4.07031 84.1484 4.40039 84.4023 4.82227C84.6562 5.24414 84.7832 5.72656 84.7832 6.26953C84.7832 6.82031 84.6562 7.29688 84.4023 7.69922C84.1484 8.10156 83.7812 8.41211 83.3008 8.63086C82.8242 8.84961 82.252 8.95898 81.584 8.95898ZM85.9961 3.46875H89.1777C89.8301 3.46875 90.3906 3.56641 90.8594 3.76172C91.332 3.95703 91.6953 4.24609 91.9492 4.62891C92.2031 5.01172 92.3301 5.48242 92.3301 6.04102C92.3301 6.49805 92.252 6.89062 92.0957 7.21875C91.9434 7.54297 91.7266 7.81445 91.4453 8.0332C91.168 8.24805 90.8418 8.41992 90.4668 8.54883L89.9102 8.8418H87.1445L87.1328 7.4707H89.1895C89.498 7.4707 89.7539 7.41602 89.957 7.30664C90.1602 7.19727 90.3125 7.04492 90.4141 6.84961C90.5195 6.6543 90.5723 6.42773 90.5723 6.16992C90.5723 5.89648 90.5215 5.66016 90.4199 5.46094C90.3184 5.26172 90.1641 5.10938 89.957 5.00391C89.75 4.89844 89.4902 4.8457 89.1777 4.8457H87.7539V12H85.9961V3.46875ZM90.7656 12L88.8203 8.19727L90.6777 8.18555L92.6465 11.918V12H90.7656ZM100.691 7.53516V7.93945C100.691 8.58789 100.604 9.16992 100.428 9.68555C100.252 10.2012 100.004 10.6406 99.6836 11.0039C99.3633 11.3633 98.9805 11.6387 98.5352 11.8301C98.0938 12.0215 97.6035 12.1172 97.0645 12.1172C96.5293 12.1172 96.0391 12.0215 95.5938 11.8301C95.1523 11.6387 94.7695 11.3633 94.4453 11.0039C94.1211 10.6406 93.8691 10.2012 93.6895 9.68555C93.5137 9.16992 93.4258 8.58789 93.4258 7.93945V7.53516C93.4258 6.88281 93.5137 6.30078 93.6895 5.78906C93.8652 5.27344 94.1133 4.83398 94.4336 4.4707C94.7578 4.10742 95.1406 3.83008 95.582 3.63867C96.0273 3.44727 96.5176 3.35156 97.0527 3.35156C97.5918 3.35156 98.082 3.44727 98.5234 3.63867C98.9688 3.83008 99.3516 4.10742 99.6719 4.4707C99.9961 4.83398 100.246 5.27344 100.422 5.78906C100.602 6.30078 100.691 6.88281 100.691 7.53516ZM98.916 7.93945V7.52344C98.916 7.07031 98.875 6.67188 98.793 6.32812C98.7109 5.98438 98.5898 5.69531 98.4297 5.46094C98.2695 5.22656 98.0742 5.05078 97.8438 4.93359C97.6133 4.8125 97.3496 4.75195 97.0527 4.75195C96.7559 4.75195 96.4922 4.8125 96.2617 4.93359C96.0352 5.05078 95.8418 5.22656 95.6816 5.46094C95.5254 5.69531 95.4062 5.98438 95.3242 6.32812C95.2422 6.67188 95.2012 7.07031 95.2012 7.52344V7.93945C95.2012 8.38867 95.2422 8.78711 95.3242 9.13477C95.4062 9.47852 95.5273 9.76953 95.6875 10.0078C95.8477 10.2422 96.043 10.4199 96.2734 10.541C96.5039 10.6621 96.7676 10.7227 97.0645 10.7227C97.3613 10.7227 97.625 10.6621 97.8555 10.541C98.0859 10.4199 98.2793 10.2422 98.4355 10.0078C98.5918 9.76953 98.7109 9.47852 98.793 9.13477C98.875 8.78711 98.916 8.38867 98.916 7.93945Z" fill="white"/>
</svg>
