<?xml version="1.0" encoding="utf-8"?>
<!-- Generator: Adobe Illustrator 26.2.1, SVG Export Plug-In . SVG Version: 6.00 Build 0)  -->
<svg version="1.1" id="Layer_1" xmlns="http://www.w3.org/2000/svg" xmlns:xlink="http://www.w3.org/1999/xlink" x="0px" y="0px"
	 viewBox="0 0 327.7 54.4" style="enable-background:new 0 0 327.7 54.4;" xml:space="preserve">
<style type="text/css">
	.st0{fill:#EC269A;}
	.st1{fill:#750046;}
</style>
<g>
	<polygon class="st0" points="327.7,14.7 316.2,14.7 316.2,3.2 307,3.2 307,14.7 295.5,14.7 295.5,23.8 307,23.8 307,35.3 
		316.2,35.3 316.2,23.8 327.7,23.8 	"/>
	<g>
		<path class="st1" d="M6.4,0C2.6,0,0,2.4,0,6.1c0,3.8,2.5,6.2,6.4,6.2c3.9,0,6.4-2.4,6.4-6.1S10.4,0,6.4,0z"/>
		<rect x="0.7" y="14.7" class="st1" width="11.5" height="38.9"/>
		<path class="st1" d="M41.9,13.9c-6.1,0-9.9,2.9-12.1,8h-0.6v-7.3H18.1v38.9h11.5V30.9c0-5.5,2.7-8.1,7.4-8.1
			c4.6,0,6.9,2.4,6.9,7.8v23.1h11.5V28.4C55.4,18.9,50.3,13.9,41.9,13.9z"/>
		<path class="st1" d="M80.1,29.7l-5.6-0.7c-2.9-0.4-4.1-1.4-4.1-3.3c0-2.2,1.7-3.8,5.5-3.8c3.7,0,5.4,1.7,5.7,4.6h10.6
			c-0.6-7.6-5.6-12.6-16.1-12.6c-10.8,0-16.3,5.4-16.3,12.8c0,6.6,3.7,10.6,12.6,11.6l5,0.6c3.5,0.4,4.6,1.6,4.6,3.7
			c0,2.2-1.7,3.8-5.8,3.8c-3.7,0-5.8-1.8-6.2-5.1H58.9c0.7,7.8,6.3,13.1,17.2,13.1c10.6,0,16.5-5.4,16.5-13
			C92.6,34.4,88.9,30.9,80.1,29.7z"/>
		<path class="st1" d="M110.8,7.5h-7.3c-0.2,5.9-2.8,8.3-9.1,8.7v7.6h4.9v18.4c0,7.9,4.1,12.2,13.5,12.2c2,0,3.8-0.2,5.7-0.7V45
			c-0.9,0.2-1.9,0.3-2.9,0.3c-3.2,0-4.8-1.2-4.8-5.1V23.8h8.7v-9.1h-8.7V7.5z"/>
		<path class="st1" d="M139.9,13.9c-10.4,0-16.6,5.4-17.8,13.8h10.9c0.4-3.1,2.4-4.9,6.4-4.9c3.6,0,5.5,1.6,5.5,4.3
			c0,2-1.2,3.2-4.6,3.8l-6.6,1.2c-8.8,1.6-12.1,5.6-12.1,11.4c0,6.2,4.2,11,11.9,11c5.9,0,9.4-2.7,11.2-7.3h0.5v6.5h11.1V28.4
			C156.5,19.6,151.1,13.9,139.9,13.9z M145,39.6c0,5-2.6,7.1-6.5,7.1c-3.2,0-5.2-1.6-5.2-4.3c0-2.1,1.1-3.5,4.1-4.2l3.4-0.8
			c1.8-0.4,3.1-1,4.1-1.8V39.6z"/>
		<path class="st1" d="M181.5,45c-5.7,0-9.3-3.7-9.3-11.1c0-6.9,3.3-10.6,9.2-10.6c5.3,0,7.9,3.1,8.4,7.9h11.4
			c-0.9-10.6-7.6-17.3-19.8-17.3c-12.6,0-20.9,8.1-20.9,20.4c0,12.2,7.4,20.1,20.6,20.1c11.9,0,19.3-6.6,20.3-17.4H190
			C189.5,42.1,186.4,45,181.5,45z"/>
		<path class="st1" d="M222.5,13.9c-10.4,0-16.6,5.4-17.8,13.8h10.9c0.4-3.1,2.4-4.9,6.4-4.9c3.6,0,5.5,1.6,5.5,4.3
			c0,2-1.2,3.2-4.6,3.8l-6.6,1.2c-8.8,1.6-12.1,5.6-12.1,11.4c0,6.2,4.2,11,11.9,11c5.9,0,9.4-2.7,11.2-7.3h0.5v6.5H239V28.4
			C239,19.6,233.7,13.9,222.5,13.9z M227.5,39.6c0,5-2.6,7.1-6.5,7.1c-3.3,0-5.2-1.6-5.2-4.3c0-2.1,1.1-3.5,4.1-4.2l3.4-0.8
			c1.8-0.4,3.1-1,4.1-1.8V39.6z"/>
		<path class="st1" d="M256,24.1h-0.6v-9.4h-10.9v38.9h11.5V33.3c0-6.1,2.2-8.3,7.6-8.3c1.2,0,2.2,0.1,3.1,0.2V14.4
			c-0.8-0.3-1.5-0.4-2.3-0.4C260.8,14,258,16.2,256,24.1z"/>
		<path class="st1" d="M281.8,7.5h-7.1c-0.2,4-1.4,6.4-4.4,7.6v27.1c0,7.9,4.1,12.2,13.5,12.2c2,0,3.8-0.2,5.7-0.7V45
			c-0.9,0.2-1.9,0.3-2.9,0.3c-3.2,0-4.8-1.2-4.8-5.1V23.8h8.7v-9.1h-8.7V7.5z"/>
	</g>
</g>
</svg>
